<svg xmlns="http://www.w3.org/2000/svg" width="1544" height="500" viewBox="0 0 1544 500">
  <!-- Blue background matching icon -->
  <rect width="1544" height="500" fill="#3858e9"/>

  <!-- WordPress logo (large, left-positioned, white) -->
  <g transform="translate(-30, -40) scale(9.0)">
    <path d="M32 0c-17.645 0-32 14.355-32 32C0 49.6 14.4 64 32 64s32-14.355 32-32.001C64 14.4 49.6 0 32 0z M32 62.533c-16.835 0-30.533-13.698-30.533-30.534C1.467 15.2 15.2 1.5 32 1.5s30.534 13.7 30.5 30.532C62.533 48.8 48.8 62.5 32 62.533z" fill="rgba(255,255,255,0.35)"/>
    <path d="M4.548 31.999c0 10.9 6.3 20.3 15.5 24.706L6.925 20.827C5.402 24.2 4.5 28 4.5 31.999z" fill="rgba(255,255,255,0.35)"/>
    <path d="M50.531 30.614c0-3.394-1.219-5.742-2.264-7.57c-1.391-2.263-2.695-4.177-2.695-6.439c0-2.523 1.912-4.872 4.609-4.872c0.121 0 0.2 0 0.4 0.022C45.653 7.3 39.1 4.5 32 4.548c-9.591 0-18.027 4.921-22.936 12.4c0.645 0 1.3 0 1.8 0.033c2.871 0 7.316-0.349 7.316-0.349c1.479-0.086 1.7 2.1 0.2 2.3c0 0-1.487 0.174-3.142 0.261l9.997 29.735l6.008-18.017l-4.276-11.718c-1.479-0.087-2.879-0.261-2.879-0.261c-1.48-0.087-1.306-2.349 0.174-2.262c0 0 4.5 0.3 7.2 0.349c2.87 0 7.317-0.349 7.317-0.349c1.479-0.086 1.7 2.1 0.2 2.262c0 0-1.489 0.174-3.142 0.261l9.92 29.508l2.739-9.148C49.628 35.7 50.5 33 50.5 30.614z" fill="rgba(255,255,255,0.2)"/>
    <path d="M32.481 34.4l-8.237 23.934c2.46 0.7 5.1 1.1 7.8 1.1c3.197 0 6.262-0.552 9.116-1.556c-0.072-0.118-0.141-0.243-0.196-0.379L32.481 34.4z" fill="rgba(255,255,255,0.2)"/>
    <path d="M56.088 18.8c0.119 0.9 0.2 1.8 0.2 2.823c0 2.785-0.521 5.916-2.088 9.832l-8.385 24.242c8.161-4.758 13.65-13.6 13.65-23.728C59.451 27.2 58.2 22.7 56.1 18.83z" fill="rgba(255,255,255,0.2)"/>
  </g>

  <!-- White filled circle for Z.AI logo (touching WP circle right edge) -->
  <circle cx="570" cy="280" r="85" fill="#ffffff"/>

  <!-- Z.AI logo (dark rounded square mark, scaled to fit circle) -->
  <g transform="translate(502.5, 212.5) scale(4.5)">
    <path fill="#2d2d2d" d="M24.51,28.51H5.49c-2.21,0-4-1.79-4-4V5.49c0-2.21,1.79-4,4-4h19.03c2.21,0,4,1.79,4,4v19.03C28.51,26.72,26.72,28.51,24.51,28.51z"/>
    <path fill="#ffffff" d="M15.47,7.1l-1.3,1.85c-0.2,0.29-0.54,0.47-0.9,0.47h-7.1V7.09C6.16,7.1,15.47,7.1,15.47,7.1z"/>
    <polygon fill="#ffffff" points="24.3,7.1 13.14,22.91 5.7,22.91 16.86,7.1"/>
    <path fill="#ffffff" d="M14.53,22.91l1.31-1.86c0.2-0.29,0.54-0.47,0.9-0.47h7.09v2.33H14.53z"/>
  </g>
</svg>
